<svg id="SvgjsSvg1001" width="288" height="288" xmlns="http://www.w3.org/2000/svg" version="1.1" xmlns:xlink="http://www.w3.org/1999/xlink" xmlns:svgjs="http://svgjs.com/svgjs"><defs id="SvgjsDefs1002"></defs><g id="SvgjsG1008"><svg xmlns="http://www.w3.org/2000/svg" viewBox="0 0 32 32" width="288" height="288"><path d="M29,2H19a1,1,0,0,0-.71.29L3,17.61a3.38,3.38,0,0,0,0,4.78L9.61,29a3.38,3.38,0,0,0,4.78,0L29.71,13.71A1,1,0,0,0,30,13V3A1,1,0,0,0,29,2ZM28,12.59l-15,15a1.39,1.39,0,0,1-2,0L4.39,21a1.39,1.39,0,0,1,0-2l15-15H28Z" fill="#d6ae0f" class="color000 svgShape"></path><path d="M23,12a3,3,0,1,0-3-3A3,3,0,0,0,23,12Zm0-4a1,1,0,1,1-1,1A1,1,0,0,1,23,8Z" fill="#d6ae0f" class="color000 svgShape"></path></svg></g></svg>